<svg preserveAspectRatio="none" width="100%" height="100%" overflow="visible" style="display: block;" viewBox="0 0 36 36" fill="none" xmlns="http://www.w3.org/2000/svg">
<g id="more_vert">
<mask id="mask0_2001_5829" style="mask-type:alpha" maskUnits="userSpaceOnUse" x="0" y="0" width="36" height="36">
<rect id="Bounding box" width="36" height="36" fill="var(--fill-0, #D9D9D9)"/>
</mask>
<g mask="url(#mask0_2001_5829)">
<path id="more_vert_2" d="M17.9964 30.0003C17.3904 30.0003 16.8728 29.7845 16.4435 29.353C16.0143 28.9215 15.7997 28.4028 15.7997 27.7968C15.7997 27.1908 16.0154 26.6732 16.4469 26.2439C16.8787 25.8149 17.3974 25.6004 18.0032 25.6004C18.6092 25.6004 19.1268 25.8162 19.556 26.2477C19.9853 26.6792 20.1999 27.1979 20.1999 27.8039C20.1999 28.4099 19.9842 28.9274 19.5527 29.3564C19.1209 29.7857 18.6022 30.0003 17.9964 30.0003ZM17.9964 20.2004C17.3904 20.2004 16.8728 19.9847 16.4435 19.5532C16.0143 19.1214 15.7997 18.6027 15.7997 17.9969C15.7997 17.3909 16.0154 16.8733 16.4469 16.444C16.8787 16.0148 17.3974 15.8002 18.0032 15.8002C18.6092 15.8002 19.1268 16.0159 19.556 16.4474C19.9853 16.8792 20.1999 17.3979 20.1999 18.0037C20.1999 18.6097 19.9842 19.1273 19.5527 19.5565C19.1209 19.9858 18.6022 20.2004 17.9964 20.2004ZM17.9964 10.4002C17.3904 10.4002 16.8728 10.1844 16.4435 9.75292C16.0143 9.32142 15.7997 8.80267 15.7997 8.19667C15.7997 7.59067 16.0154 7.07317 16.4469 6.64417C16.8787 6.21492 17.3974 6.00029 18.0032 6.00029C18.6092 6.00029 19.1268 6.21604 19.556 6.64754C19.9853 7.07904 20.1999 7.59779 20.1999 8.20379C20.1999 8.80979 19.9842 9.32742 19.5527 9.75667C19.1209 10.1857 18.6022 10.4002 17.9964 10.4002Z" fill="var(--fill-0, #222222)"/>
</g>
</g>
</svg>
